<svg width="1226" height="176" viewBox="0 0 1226 176" fill="none" xmlns="http://www.w3.org/2000/svg">
<path d="M193.585 101.141C193.585 101.023 193.585 100.904 193.547 100.786L184.056 33.4902C183.905 32.3442 183.259 31.3563 182.234 30.7636C181.247 30.2104 180.07 30.0918 179.008 30.5265L135.352 48.4272C133.454 49.2175 132.543 51.3909 133.302 53.3271C134.061 55.2634 136.225 56.1723 138.123 55.382L177.413 39.299L186.144 101.339C186.144 101.536 186.182 101.695 186.182 101.853C188.118 113.352 185.992 125.206 180.26 135.323C173.693 146.98 163.026 155.239 150.271 158.716C137.516 162.193 124.229 160.376 112.765 153.618C112.689 153.579 112.613 153.539 112.499 153.5C114.929 151.603 117.283 149.548 119.408 147.375L162.684 135.56C164.658 135.046 165.835 132.952 165.304 130.976C164.772 129 162.76 127.775 160.786 128.289L127.494 137.377C131.138 131.845 133.986 125.681 135.96 119.2L165.683 111.099C167.657 110.586 168.834 108.491 168.302 106.515C167.771 104.5 165.759 103.315 163.785 103.828L141.957 109.795L150.157 95.293L167.543 90.5511C169.517 90.0374 170.694 87.943 170.163 85.9672C169.631 83.9519 167.619 82.7665 165.645 83.2802L155.396 86.0858L163.254 72.1762C164.279 70.3585 163.671 68.0665 161.887 66.9996C160.103 65.9327 157.863 66.6045 156.838 68.3827L148.98 82.2923L146.247 71.8601C145.716 69.8448 143.704 68.6593 141.73 69.173C139.756 69.6867 138.579 71.781 139.11 73.7568L143.78 91.4599L138.958 99.9559C139.11 87.9035 136.073 76.0092 130 65.2609C122.331 51.786 110.298 41.3143 96.0243 35.7426C95.9864 35.7426 95.9864 35.7031 95.9484 35.7031L79.2834 28.7878C77.3854 27.9975 75.2595 28.9459 74.4624 30.8426C73.6652 32.7394 74.6142 34.9918 76.5123 35.7426L93.0633 42.6183C93.1393 42.6579 93.2152 42.6974 93.2911 42.7369C106.046 47.6764 116.789 57.0021 123.622 69.0149C131.556 83.0431 133.644 99.3236 129.506 115.011C125.71 129.435 117.017 141.685 104.869 149.864L98.6436 138.918L112.082 87.7454C112.613 85.7301 111.437 83.6753 109.463 83.1616C107.489 82.6479 105.477 83.7939 104.945 85.8487L93.405 129.79L79.739 105.646L89.0395 70.1609C89.5709 68.1456 88.3941 66.0908 86.4201 65.5771C84.4462 65.0633 82.4342 66.2093 81.9028 68.2641L74.5003 96.3994L63.7193 77.3528L69.3376 55.9747C69.8691 53.9594 68.6923 51.9046 66.7183 51.3909C64.7443 50.8772 62.7323 52.0231 62.2009 54.0779L58.5187 68.1851L48.2691 50.1263C47.2442 48.3086 44.9665 47.7159 43.2203 48.7433C41.4361 49.8102 40.8667 52.1021 41.8537 53.9199L52.1032 71.9786L38.2853 68.0666C36.3113 67.5528 34.2994 68.6988 33.7679 70.7536C33.2365 72.7689 34.4133 74.8238 36.3873 75.3375L57.3419 81.0673L68.1228 100.114L40.4491 92.5269C38.4751 92.0132 36.4632 93.1591 35.9317 95.2139C35.4003 97.2293 36.5771 99.2841 38.5511 99.7978L73.3615 109.282L87.0275 133.426L43.9795 121.69C42.0055 121.176 39.9936 122.322 39.4621 124.377C38.9307 126.392 40.1075 128.447 42.0815 128.96L92.2662 142.672L98.4918 153.618C70.5524 167.805 36.1595 157.57 20.4436 129.751C13.4587 117.58 10.9533 103.275 13.2689 89.4051C13.3069 89.2075 13.3069 89.01 13.3069 88.8519L23.898 14.0484L48.421 24.1644C50.319 24.9547 52.4449 24.0064 53.242 22.1096C54.0392 20.2128 53.0902 17.9604 51.1921 17.2096L22.2657 5.27585C21.2408 4.84118 20.026 4.92021 19.039 5.51295C18.052 6.06617 17.3687 7.09358 17.2169 8.27906L5.94239 88.3382C5.94239 88.4567 5.90443 88.6148 5.90443 88.7333C3.47491 104.145 6.322 120.069 13.9902 133.623C26.3276 155.436 48.8385 167.607 71.9949 167.607C82.2064 167.607 92.5319 165.236 102.174 160.218L106.729 168.239C107.413 169.464 108.665 170.136 109.956 170.136C110.601 170.136 111.209 169.978 111.816 169.662C113.6 168.595 114.17 166.303 113.183 164.485L111.475 161.522C119.636 165.868 128.557 168.042 137.554 168.042C142.451 168.042 147.424 167.409 152.283 166.066C166.936 162.075 179.197 152.551 186.752 139.156C193.205 127.696 195.672 114.182 193.585 101.141Z" fill="#11AB7C" stroke="#11AB7C" stroke-width="10" stroke-miterlimit="10"/>
<path d="M286.77 133C285.87 133 285.105 132.685 284.475 132.055C283.845 131.425 283.53 130.66 283.53 129.76V41.875C283.53 40.885 283.845 40.075 284.475 39.445C285.105 38.815 285.87 38.5 286.77 38.5H319.71C328.8 38.5 336.27 39.895 342.12 42.685C348.06 45.475 352.515 49.615 355.485 55.105C358.545 60.595 360.12 67.3 360.21 75.22C360.39 79.18 360.48 82.69 360.48 85.75C360.48 88.81 360.39 92.275 360.21 96.145C360.03 104.515 358.5 111.445 355.62 116.935C352.74 122.335 348.375 126.385 342.525 129.085C336.765 131.695 329.385 133 320.385 133H286.77ZM302.295 117.475H319.71C324.75 117.475 328.845 116.755 331.995 115.315C335.145 113.875 337.44 111.58 338.88 108.43C340.41 105.19 341.22 100.96 341.31 95.74C341.4 93.04 341.445 90.7 341.445 88.72C341.535 86.65 341.535 84.625 341.445 82.645C341.445 80.575 341.4 78.235 341.31 75.625C341.13 68.245 339.285 62.8 335.775 59.29C332.265 55.78 326.685 54.025 319.035 54.025H302.295V117.475ZM380.072 133C379.172 133 378.407 132.685 377.777 132.055C377.147 131.425 376.832 130.66 376.832 129.76V66.04C376.832 65.14 377.147 64.375 377.777 63.745C378.407 63.115 379.172 62.8 380.072 62.8H391.277C392.267 62.8 393.032 63.115 393.572 63.745C394.202 64.375 394.517 65.14 394.517 66.04V129.76C394.517 130.66 394.202 131.425 393.572 132.055C393.032 132.685 392.267 133 391.277 133H380.072ZM379.532 51.19C378.542 51.19 377.732 50.92 377.102 50.38C376.562 49.75 376.292 48.94 376.292 47.95V38.23C376.292 37.33 376.562 36.565 377.102 35.935C377.732 35.305 378.542 34.99 379.532 34.99H391.817C392.807 34.99 393.617 35.305 394.247 35.935C394.877 36.565 395.192 37.33 395.192 38.23V47.95C395.192 48.94 394.877 49.75 394.247 50.38C393.617 50.92 392.807 51.19 391.817 51.19H379.532ZM444.153 162.7C437.583 162.7 432.183 161.845 427.953 160.135C423.723 158.425 420.393 156.355 417.963 153.925C415.533 151.495 413.778 149.065 412.698 146.635C411.708 144.295 411.168 142.45 411.078 141.1C410.988 140.2 411.258 139.39 411.888 138.67C412.608 138.04 413.418 137.725 414.318 137.725H426.063C426.963 137.725 427.683 137.905 428.223 138.265C428.763 138.715 429.213 139.48 429.573 140.56C430.113 141.73 430.833 142.99 431.733 144.34C432.633 145.69 433.983 146.815 435.783 147.715C437.673 148.705 440.238 149.2 443.478 149.2C446.898 149.2 449.778 148.705 452.118 147.715C454.458 146.725 456.213 145.06 457.383 142.72C458.643 140.38 459.273 137.14 459.273 133V123.82C457.113 126.43 454.323 128.545 450.903 130.165C447.573 131.785 443.433 132.595 438.483 132.595C433.623 132.595 429.438 131.83 425.928 130.3C422.418 128.68 419.493 126.475 417.153 123.685C414.813 120.805 413.013 117.43 411.753 113.56C410.583 109.69 409.908 105.415 409.728 100.735C409.638 98.305 409.638 95.875 409.728 93.445C409.908 88.945 410.583 84.76 411.753 80.89C412.923 77.02 414.678 73.645 417.018 70.765C419.448 67.795 422.418 65.5 425.928 63.88C429.438 62.26 433.623 61.45 438.483 61.45C443.613 61.45 447.933 62.44 451.443 64.42C454.953 66.31 457.833 68.695 460.083 71.575V66.175C460.083 65.185 460.398 64.375 461.028 63.745C461.658 63.115 462.423 62.8 463.323 62.8H474.258C475.158 62.8 475.923 63.115 476.553 63.745C477.183 64.375 477.498 65.185 477.498 66.175L477.633 131.245C477.633 137.725 476.418 143.305 473.988 147.985C471.558 152.665 467.868 156.265 462.918 158.785C458.058 161.395 451.803 162.7 444.153 162.7ZM443.478 118.285C447.168 118.285 450.138 117.475 452.388 115.855C454.638 114.235 456.303 112.12 457.383 109.51C458.463 106.9 459.093 104.245 459.273 101.545C459.363 100.375 459.408 98.89 459.408 97.09C459.408 95.29 459.363 93.85 459.273 92.77C459.093 89.98 458.463 87.325 457.383 84.805C456.303 82.195 454.638 80.08 452.388 78.46C450.138 76.75 447.168 75.895 443.478 75.895C439.788 75.895 436.818 76.75 434.568 78.46C432.318 80.08 430.698 82.24 429.708 84.94C428.808 87.64 428.268 90.61 428.088 93.85C427.908 96.01 427.908 98.215 428.088 100.465C428.268 103.615 428.808 106.585 429.708 109.375C430.698 112.075 432.318 114.235 434.568 115.855C436.818 117.475 439.788 118.285 443.478 118.285ZM498.856 133C497.956 133 497.191 132.685 496.561 132.055C495.931 131.425 495.616 130.66 495.616 129.76V66.04C495.616 65.14 495.931 64.375 496.561 63.745C497.191 63.115 497.956 62.8 498.856 62.8H510.061C511.051 62.8 511.816 63.115 512.356 63.745C512.986 64.375 513.301 65.14 513.301 66.04V129.76C513.301 130.66 512.986 131.425 512.356 132.055C511.816 132.685 511.051 133 510.061 133H498.856ZM498.316 51.19C497.326 51.19 496.516 50.92 495.886 50.38C495.346 49.75 495.076 48.94 495.076 47.95V38.23C495.076 37.33 495.346 36.565 495.886 35.935C496.516 35.305 497.326 34.99 498.316 34.99H510.601C511.591 34.99 512.401 35.305 513.031 35.935C513.661 36.565 513.976 37.33 513.976 38.23V47.95C513.976 48.94 513.661 49.75 513.031 50.38C512.401 50.92 511.591 51.19 510.601 51.19H498.316ZM542.012 133C541.112 133 540.347 132.685 539.717 132.055C539.087 131.425 538.772 130.66 538.772 129.76V77.11H527.837C526.937 77.11 526.172 76.795 525.542 76.165C524.912 75.535 524.597 74.77 524.597 73.87V66.04C524.597 65.14 524.912 64.375 525.542 63.745C526.172 63.115 526.937 62.8 527.837 62.8H538.772V57.265C538.772 51.865 539.762 47.41 541.742 43.9C543.722 40.3 546.647 37.6 550.517 35.8C554.387 34 559.292 33.1 565.232 33.1H574.412C575.402 33.1 576.167 33.415 576.707 34.045C577.337 34.675 577.652 35.44 577.652 36.34V44.17C577.652 45.07 577.337 45.835 576.707 46.465C576.167 47.095 575.402 47.41 574.412 47.41H565.772C562.172 47.41 559.697 48.31 558.347 50.11C556.997 51.91 556.322 54.52 556.322 57.94V62.8H573.062C574.052 62.8 574.817 63.115 575.357 63.745C575.987 64.375 576.302 65.14 576.302 66.04V73.87C576.302 74.77 575.987 75.535 575.357 76.165C574.817 76.795 574.052 77.11 573.062 77.11H556.322V129.76C556.322 130.66 556.007 131.425 555.377 132.055C554.747 132.685 553.982 133 553.082 133H542.012ZM599.8 158.65C599.08 158.65 598.45 158.38 597.91 157.84C597.37 157.3 597.1 156.67 597.1 155.95C597.1 155.59 597.1 155.23 597.1 154.87C597.19 154.6 597.37 154.24 597.64 153.79L608.17 128.815L582.25 67.66C581.89 66.76 581.71 66.13 581.71 65.77C581.8 64.96 582.115 64.285 582.655 63.745C583.195 63.115 583.87 62.8 584.68 62.8H595.615C596.695 62.8 597.505 63.07 598.045 63.61C598.585 64.15 598.99 64.735 599.26 65.365L617.215 109.51L635.71 65.365C635.98 64.645 636.385 64.06 636.925 63.61C637.465 63.07 638.275 62.8 639.355 62.8H650.155C650.875 62.8 651.505 63.07 652.045 63.61C652.675 64.15 652.99 64.78 652.99 65.5C652.99 66.04 652.81 66.76 652.45 67.66L614.245 156.085C613.885 156.805 613.435 157.39 612.895 157.84C612.355 158.38 611.545 158.65 610.465 158.65H599.8Z" fill="black"/>
<path d="M702.97 134.35C694.69 134.35 687.625 132.91 681.775 130.03C676.015 127.15 671.515 123.01 668.275 117.61C665.125 112.12 663.415 105.595 663.145 98.035C663.055 94.165 663.01 90.025 663.01 85.615C663.01 81.115 663.055 76.885 663.145 72.925C663.415 65.455 665.125 59.065 668.275 53.755C671.515 48.445 676.06 44.35 681.91 41.47C687.85 38.59 694.87 37.15 702.97 37.15C709.54 37.15 715.3 38.05 720.25 39.85C725.2 41.56 729.295 43.81 732.535 46.6C735.865 49.3 738.34 52.225 739.96 55.375C741.67 58.525 742.57 61.45 742.66 64.15C742.75 64.96 742.525 65.635 741.985 66.175C741.445 66.715 740.725 66.985 739.825 66.985H725.92C725.02 66.985 724.345 66.805 723.895 66.445C723.445 66.085 723.04 65.545 722.68 64.825C721.96 62.935 720.835 61.09 719.305 59.29C717.775 57.4 715.705 55.825 713.095 54.565C710.485 53.305 707.11 52.675 702.97 52.675C696.85 52.675 691.945 54.295 688.255 57.535C684.655 60.775 682.72 66.13 682.45 73.6C682.18 81.43 682.18 89.35 682.45 97.36C682.72 105.01 684.7 110.5 688.39 113.83C692.17 117.16 697.12 118.825 703.24 118.825C707.29 118.825 710.89 118.105 714.04 116.665C717.28 115.225 719.8 112.975 721.6 109.915C723.49 106.855 724.435 102.94 724.435 98.17V93.985H707.965C707.065 93.985 706.3 93.67 705.67 93.04C705.04 92.41 704.725 91.6 704.725 90.61V83.455C704.725 82.465 705.04 81.655 705.67 81.025C706.3 80.395 707.065 80.08 707.965 80.08H740.23C741.22 80.08 741.985 80.395 742.525 81.025C743.155 81.655 743.47 82.465 743.47 83.455V97.63C743.47 105.19 741.805 111.715 738.475 117.205C735.235 122.695 730.555 126.925 724.435 129.895C718.405 132.865 711.25 134.35 702.97 134.35ZM779.541 134.35C774.861 134.35 770.631 133.45 766.851 131.65C763.071 129.76 760.056 127.285 757.806 124.225C755.646 121.075 754.566 117.565 754.566 113.695C754.566 107.395 757.086 102.4 762.126 98.71C767.256 94.93 774.006 92.41 782.376 91.15L800.871 88.45V85.615C800.871 81.835 799.926 78.91 798.036 76.84C796.146 74.77 792.906 73.735 788.316 73.735C785.076 73.735 782.421 74.41 780.351 75.76C778.371 77.02 776.886 78.73 775.896 80.89C775.176 82.06 774.141 82.645 772.791 82.645H762.126C761.136 82.645 760.371 82.375 759.831 81.835C759.381 81.295 759.156 80.575 759.156 79.675C759.246 78.235 759.831 76.48 760.911 74.41C761.991 72.34 763.701 70.36 766.041 68.47C768.381 66.49 771.396 64.825 775.086 63.475C778.776 62.125 783.231 61.45 788.451 61.45C794.121 61.45 798.891 62.17 802.761 63.61C806.721 64.96 809.871 66.805 812.211 69.145C814.551 71.485 816.261 74.23 817.341 77.38C818.421 80.53 818.961 83.86 818.961 87.37V129.76C818.961 130.66 818.646 131.425 818.016 132.055C817.386 132.685 816.621 133 815.721 133H804.786C803.796 133 802.986 132.685 802.356 132.055C801.816 131.425 801.546 130.66 801.546 129.76V124.495C800.376 126.205 798.801 127.825 796.821 129.355C794.841 130.795 792.411 132.01 789.531 133C786.741 133.9 783.411 134.35 779.541 134.35ZM784.131 121.525C787.281 121.525 790.116 120.85 792.636 119.5C795.246 118.15 797.271 116.08 798.711 113.29C800.241 110.41 801.006 106.81 801.006 102.49V99.655L787.506 101.815C782.196 102.625 778.236 103.93 775.626 105.73C773.016 107.53 771.711 109.735 771.711 112.345C771.711 114.325 772.296 116.035 773.466 117.475C774.726 118.825 776.301 119.86 778.191 120.58C780.081 121.21 782.061 121.525 784.131 121.525ZM839.52 133C838.62 133 837.855 132.685 837.225 132.055C836.595 131.425 836.28 130.66 836.28 129.76V66.175C836.28 65.185 836.595 64.375 837.225 63.745C837.855 63.115 838.62 62.8 839.52 62.8H850.455C851.355 62.8 852.12 63.115 852.75 63.745C853.47 64.375 853.83 65.185 853.83 66.175V71.71C855.9 68.83 858.555 66.625 861.795 65.095C865.125 63.565 868.95 62.8 873.27 62.8H878.805C879.795 62.8 880.56 63.115 881.1 63.745C881.73 64.375 882.045 65.14 882.045 66.04V75.76C882.045 76.66 881.73 77.425 881.1 78.055C880.56 78.685 879.795 79 878.805 79H868.275C863.955 79 860.58 80.215 858.15 82.645C855.81 85.075 854.64 88.405 854.64 92.635V129.76C854.64 130.66 854.325 131.425 853.695 132.055C853.065 132.685 852.255 133 851.265 133H839.52ZM917.574 134.35C912.894 134.35 908.754 133.585 905.154 132.055C901.644 130.435 898.719 128.185 896.379 125.305C894.039 122.425 892.239 119.05 890.979 115.18C889.719 111.22 888.999 106.9 888.819 102.22C888.729 100.6 888.684 99.16 888.684 97.9C888.684 96.55 888.729 95.065 888.819 93.445C888.999 88.945 889.674 84.76 890.844 80.89C892.104 77.02 893.904 73.645 896.244 70.765C898.674 67.795 901.644 65.5 905.154 63.88C908.754 62.26 912.894 61.45 917.574 61.45C922.434 61.45 926.529 62.305 929.859 64.015C933.279 65.635 936.114 67.75 938.364 70.36V40.39C938.364 39.49 938.634 38.725 939.174 38.095C939.804 37.465 940.614 37.15 941.604 37.15H953.079C953.979 37.15 954.744 37.465 955.374 38.095C956.004 38.725 956.319 39.49 956.319 40.39V129.76C956.319 130.66 956.004 131.425 955.374 132.055C954.744 132.685 953.979 133 953.079 133H942.414C941.424 133 940.614 132.685 939.984 132.055C939.444 131.425 939.174 130.66 939.174 129.76V124.765C936.924 127.555 934.044 129.85 930.534 131.65C927.114 133.45 922.794 134.35 917.574 134.35ZM922.569 119.905C926.349 119.905 929.364 119.05 931.614 117.34C933.864 115.63 935.529 113.47 936.609 110.86C937.689 108.16 938.274 105.415 938.364 102.625C938.454 101.005 938.499 99.295 938.499 97.495C938.499 95.605 938.454 93.85 938.364 92.23C938.274 89.53 937.644 86.965 936.474 84.535C935.304 82.015 933.594 79.945 931.344 78.325C929.094 76.705 926.169 75.895 922.569 75.895C918.789 75.895 915.774 76.75 913.524 78.46C911.364 80.08 909.789 82.24 908.799 84.94C907.809 87.64 907.224 90.61 907.044 93.85C906.954 96.55 906.954 99.25 907.044 101.95C907.224 105.19 907.809 108.16 908.799 110.86C909.789 113.56 911.364 115.765 913.524 117.475C915.774 119.095 918.789 119.905 922.569 119.905ZM1004.55 134.35C994.562 134.35 986.642 131.47 980.792 125.71C974.942 119.95 971.792 111.76 971.342 101.14C971.252 100.24 971.207 99.115 971.207 97.765C971.207 96.325 971.252 95.2 971.342 94.39C971.702 87.64 973.232 81.79 975.932 76.84C978.722 71.89 982.547 68.11 987.407 65.5C992.267 62.8 997.982 61.45 1004.55 61.45C1011.84 61.45 1017.96 62.98 1022.91 66.04C1027.86 69.01 1031.6 73.195 1034.12 78.595C1036.64 83.905 1037.9 90.07 1037.9 97.09V99.925C1037.9 100.825 1037.58 101.59 1036.95 102.22C1036.32 102.85 1035.51 103.165 1034.52 103.165H989.702C989.702 103.165 989.702 103.3 989.702 103.57C989.702 103.84 989.702 104.065 989.702 104.245C989.792 107.395 990.377 110.32 991.457 113.02C992.627 115.63 994.292 117.745 996.452 119.365C998.702 120.985 1001.36 121.795 1004.42 121.795C1006.94 121.795 1009.05 121.435 1010.76 120.715C1012.47 119.905 1013.87 119.005 1014.95 118.015C1016.03 117.025 1016.79 116.215 1017.24 115.585C1018.05 114.505 1018.68 113.875 1019.13 113.695C1019.67 113.425 1020.44 113.29 1021.43 113.29H1033.04C1033.94 113.29 1034.66 113.56 1035.2 114.1C1035.83 114.64 1036.1 115.315 1036.01 116.125C1035.92 117.565 1035.15 119.32 1033.71 121.39C1032.36 123.46 1030.38 125.485 1027.77 127.465C1025.16 129.445 1021.88 131.11 1017.92 132.46C1014.05 133.72 1009.59 134.35 1004.55 134.35ZM989.702 91.825H1019.54V91.42C1019.54 87.91 1018.95 84.85 1017.78 82.24C1016.61 79.63 1014.9 77.56 1012.65 76.03C1010.4 74.5 1007.7 73.735 1004.55 73.735C1001.4 73.735 998.702 74.5 996.452 76.03C994.202 77.56 992.492 79.63 991.322 82.24C990.242 84.85 989.702 87.91 989.702 91.42V91.825ZM1055.47 133C1054.57 133 1053.8 132.685 1053.17 132.055C1052.54 131.425 1052.23 130.66 1052.23 129.76V66.04C1052.23 65.14 1052.54 64.375 1053.17 63.745C1053.8 63.115 1054.57 62.8 1055.47 62.8H1066.54C1067.44 62.8 1068.2 63.115 1068.83 63.745C1069.46 64.375 1069.78 65.14 1069.78 66.04V71.575C1072.12 68.695 1075.09 66.31 1078.69 64.42C1082.38 62.44 1086.92 61.45 1092.32 61.45C1097.81 61.45 1102.58 62.71 1106.63 65.23C1110.68 67.66 1113.79 71.125 1115.95 75.625C1118.2 80.125 1119.32 85.525 1119.32 91.825V129.76C1119.32 130.66 1119.01 131.425 1118.38 132.055C1117.75 132.685 1116.98 133 1116.08 133H1104.2C1103.3 133 1102.54 132.685 1101.91 132.055C1101.28 131.425 1100.96 130.66 1100.96 129.76V92.635C1100.96 87.415 1099.66 83.32 1097.05 80.35C1094.53 77.38 1090.84 75.895 1085.98 75.895C1081.3 75.895 1077.56 77.38 1074.77 80.35C1071.98 83.32 1070.59 87.415 1070.59 92.635V129.76C1070.59 130.66 1070.27 131.425 1069.64 132.055C1069.01 132.685 1068.25 133 1067.35 133H1055.47Z" fill="#11AB7C"/>
</svg>
